<svg xmlns="http://www.w3.org/2000/svg" width="500" height="500" style="width:100%;height:100%;transform:translate3d(0,0,0);content-visibility:visible" viewBox="0 0 500 500"><defs><clipPath id="a"><path d="M0 0h500v500H0z"/></clipPath><clipPath id="c"><path d="M0 0h500v500H0z"/></clipPath><clipPath id="b"><path d="M0 0h500v500H0z"/></clipPath></defs><g clip-path="url(#a)"><g clip-path="url(#b)" style="display:block"><g fill="#121330" class="primary design" style="display:none"><path d="M317.7 83.362H182.303c-77.487 0-140.602 63.115-140.602 140.602V401.02c0 8.54 7.082 15.623 15.622 15.623H317.7c77.488 0 140.603-63.115 140.603-140.603v-52.075c0-77.487-63.115-140.602-140.603-140.602M427.057 276.04c0 60.2-49.159 109.358-109.358 109.358H72.947V223.964c0-60.407 49.159-109.357 109.357-109.357H317.7c60.2 0 109.358 48.95 109.358 109.357z" class="primary"/><path d="M185.846 242.086q-.625-1.875-1.875-3.749l-2.5-3.124c-7.707-7.708-21.871-7.708-29.578 0-3.75 3.957-6.041 9.165-6.041 14.789 0 5.416 2.291 10.831 6.04 14.79 3.958 3.749 9.374 6.04 14.79 6.04s10.832-2.291 14.79-6.04c.832-1.042 1.666-2.084 2.499-3.334.833-1.041 1.458-2.29 1.875-3.54q.936-1.875 1.25-3.75c.208-1.458.416-2.916.416-4.166s-.208-2.708-.417-4.166q-.312-1.875-1.25-3.75m78.946-6.873c-1.041-.834-2.083-1.875-3.333-2.5-1.041-.833-2.29-1.458-3.54-1.875a12.6 12.6 0 0 0-3.958-1.25 19.4 19.4 0 0 0-11.873 1.25c-2.708 1.042-4.791 2.5-6.874 4.375-1.875 2.083-3.333 4.166-4.375 6.874-1.041 2.5-1.666 5.207-1.666 7.915 0 5.416 2.291 10.832 6.04 14.79 2.084 1.874 4.167 3.332 6.875 4.374 2.5 1.041 5.207 1.666 7.915 1.666 1.25 0 2.708-.208 3.958-.417a12.6 12.6 0 0 0 3.957-1.25c1.25-.416 2.5-1.041 3.541-1.874 1.25-.625 2.292-1.667 3.333-2.5 3.75-3.957 6.04-9.373 6.04-14.79 0-2.707-.624-5.415-1.665-7.914-1.042-2.708-2.5-4.791-4.375-6.874m64.573-5.624a12.6 12.6 0 0 0-3.957 1.25q-1.875.624-3.75 1.874l-3.124 2.5q-2.812 3.124-4.375 6.874c-1.041 2.5-1.666 5.207-1.666 7.915 0 5.624 2.291 10.832 6.04 14.79l3.125 2.499q1.875 1.25 3.75 1.875c1.25.625 2.5 1.041 3.957 1.25 1.25.208 2.708.416 3.958.416 5.416 0 10.832-2.291 14.79-6.04l2.499-3.125q1.25-1.875 1.875-3.75.936-1.875 1.25-3.749c.208-1.458.416-2.916.416-4.166 0-5.416-2.291-10.832-6.04-14.79-5-4.79-12.082-6.873-18.748-5.623" class="primary"/></g><g fill="#121330" class="primary design" style="display:block"><path d="M317.7 83.362H182.303c-77.487 0-140.602 63.115-140.602 140.602V401.02c0 8.54 7.082 15.623 15.622 15.623H317.7c77.488 0 140.603-63.115 140.603-140.603v-52.075c0-77.487-63.115-140.602-140.603-140.602M427.057 276.04c0 60.2-49.159 109.358-109.358 109.358H72.947V223.964c0-60.407 49.159-109.357 109.357-109.357H317.7c60.2 0 109.358 48.95 109.358 109.357z" class="primary"/><path d="M185.846 242.086q-.625-1.875-1.875-3.749l-2.5-3.124c-7.707-7.708-21.871-7.708-29.578 0-3.75 3.957-6.041 9.165-6.041 14.789 0 5.416 2.291 10.831 6.04 14.79 3.958 3.749 9.374 6.04 14.79 6.04s10.832-2.291 14.79-6.04c.832-1.042 1.666-2.084 2.499-3.334.833-1.041 1.458-2.29 1.875-3.54q.936-1.875 1.25-3.75c.208-1.458.416-2.916.416-4.166s-.208-2.708-.417-4.166q-.312-1.875-1.25-3.75m78.946-6.873c-1.041-.834-2.083-1.875-3.333-2.5-1.041-.833-2.29-1.458-3.54-1.875a12.6 12.6 0 0 0-3.958-1.25 19.4 19.4 0 0 0-11.873 1.25c-2.708 1.042-4.791 2.5-6.874 4.375-1.875 2.083-3.333 4.166-4.375 6.874-1.041 2.5-1.666 5.207-1.666 7.915 0 5.416 2.291 10.832 6.04 14.79 2.084 1.874 4.167 3.332 6.875 4.374 2.5 1.041 5.207 1.666 7.915 1.666 1.25 0 2.708-.208 3.958-.417a12.6 12.6 0 0 0 3.957-1.25c1.25-.416 2.5-1.041 3.541-1.874 1.25-.625 2.292-1.667 3.333-2.5 3.75-3.957 6.04-9.373 6.04-14.79 0-2.707-.624-5.415-1.665-7.914-1.042-2.708-2.5-4.791-4.375-6.874m64.573-5.624a12.6 12.6 0 0 0-3.957 1.25q-1.875.624-3.75 1.874l-3.124 2.5q-2.812 3.124-4.375 6.874c-1.041 2.5-1.666 5.207-1.666 7.915 0 5.624 2.291 10.832 6.04 14.79l3.125 2.499q1.875 1.25 3.75 1.875c1.25.625 2.5 1.041 3.957 1.25 1.25.208 2.708.416 3.958.416 5.416 0 10.832-2.291 14.79-6.04l2.499-3.125q1.25-1.875 1.875-3.75.936-1.875 1.25-3.749c.208-1.458.416-2.916.416-4.166 0-5.416-2.291-10.832-6.04-14.79-5-4.79-12.082-6.873-18.748-5.623" class="primary"/></g><g class="primary design" style="display:none"><path fill="none" class="primary"/></g><g class="primary design" style="display:none"><path class="primary"/><path fill="none" class="primary"/></g><g class="primary design" style="display:none"><path class="primary"/><path fill="none" class="primary"/></g><g class="primary design" style="display:none"><path class="primary"/><path fill="none" class="primary"/></g></g><g clip-path="url(#c)" style="display:none"><g class="primary design" style="display:none"><path class="primary"/><path class="primary"/><path class="primary"/><path class="primary"/></g><g class="primary design" style="display:none"><path fill="none" class="primary"/></g><g class="primary design" style="display:none"><path class="primary"/><path fill="none" class="primary"/></g><g class="primary design" style="display:none"><path class="primary"/><path fill="none" class="primary"/></g><g class="primary design" style="display:none"><path class="primary"/><path fill="none" class="primary"/></g></g></g></svg>